<?xml version="1.0" encoding="utf-8"?>
<!-- Generator: Adobe Illustrator 26.4.1, SVG Export Plug-In . SVG Version: 6.00 Build 0)  -->
<svg version="1.1" id="Capa_1" xmlns="http://www.w3.org/2000/svg" xmlns:xlink="http://www.w3.org/1999/xlink" x="0px" y="0px"
	 viewBox="0 0 72 70.4" style="enable-background:new 0 0 72 70.4;" xml:space="preserve">
<style type="text/css">
	.st0{fill:#28384A;}
</style>
<g>
	<path class="st0" d="M70.3,33c0,1.4,0,2.9,0,4.3c-0.1,0.8-0.2,1.7-0.3,2.5c-1,6.6-3.5,12.5-7.9,17.6c-5.5,6.4-12.5,10.3-20.9,11.6
		c-0.9,0.1-1.9,0.3-2.8,0.4c-1.6,0-3.2,0-4.8,0c-0.1,0-0.3-0.1-0.4-0.1c-2.4-0.2-4.7-0.6-7-1.3C9.4,63-1,46.3,2.3,28.9
		c1.1-6,3.6-11.4,7.7-16C17.8,3.9,27.7,0,39.6,1c4.3,0.4,8.5,1.6,12.3,3.7C62,10.3,68,18.7,69.9,30C70.1,31,70.2,32,70.3,33z
		 M36,63.2c15.5,0,28-12.5,28.1-28c0-15.5-12.4-28-28-28.1C20.5,7.1,8,19.6,8,35.1C7.9,50.7,20.4,63.2,36,63.2z"/>
	<path class="st0" d="M36,30.7c0.2-0.2,0.4-0.4,0.6-0.5c3.4-3.4,6.8-6.8,10.2-10.2c1-1,2.1-1.5,3.5-1c2,0.7,2.8,3.2,1.5,4.8
		c-0.2,0.3-0.5,0.5-0.7,0.8c-3.3,3.3-6.7,6.7-10,10c-0.2,0.2-0.4,0.3-0.6,0.5c0.3,0.3,0.5,0.5,0.7,0.7c3.4,3.4,6.8,6.8,10.2,10.2
		c1.2,1.2,1.5,2.6,0.8,3.9c-0.9,1.7-3.2,2.2-4.7,1c-0.2-0.2-0.5-0.4-0.7-0.6c-3.3-3.3-6.7-6.7-10-10c-0.2-0.2-0.3-0.3-0.6-0.5
		c-0.2,0.2-0.4,0.4-0.6,0.5C32,43.6,28.6,47,25.2,50.4c-1,1-2.1,1.5-3.5,1c-2-0.7-2.8-3.2-1.5-4.8c0.2-0.3,0.5-0.5,0.7-0.8
		c3.3-3.3,6.7-6.7,10-10c0.2-0.2,0.4-0.3,0.6-0.5c-0.3-0.3-0.4-0.5-0.6-0.7c-3.4-3.4-6.8-6.8-10.2-10.2c-1.2-1.2-1.5-2.6-0.8-3.9
		c0.9-1.7,3.2-2.2,4.7-1c0.2,0.2,0.5,0.4,0.7,0.6c3.3,3.3,6.7,6.7,10,10C35.6,30.4,35.8,30.5,36,30.7z"/>
</g>
</svg>
