<?xml version="1.0" encoding="utf-8"?>
<!-- Generator: Adobe Illustrator 26.4.1, SVG Export Plug-In . SVG Version: 6.00 Build 0)  -->
<svg version="1.1" id="Capa_1" xmlns="http://www.w3.org/2000/svg" xmlns:xlink="http://www.w3.org/1999/xlink" x="0px" y="0px"
	 viewBox="0 0 4.7 4.7" style="enable-background:new 0 0 4.7 4.7;" xml:space="preserve">
<style type="text/css">
	.st0{fill:#28384A;}
</style>
<path class="st0" d="M4.6,2.2l0-0.2C4.5,1.1,3.8,0.3,2.8,0.1C1.8-0.1,0.7,0.4,0.3,1.4C0.2,1.6,0.1,1.9,0.1,2.2l0,0l0,0.3l0,0.1
	c0,0,0,0.1,0,0.1c0.1,0.9,0.8,1.7,1.8,1.9c0.1,0,0.1,0,0.2,0l0.1,0l0.3,0l0.1,0c0.1,0,0.1,0,0.2,0C3.2,4.5,3.6,4.3,4,4
	c0.4-0.4,0.6-0.8,0.6-1.3c0,0,0-0.1,0-0.1l0-0.1L4.6,2.2z M4,2.3c0,0.5-0.2,0.9-0.5,1.2C3.2,3.9,2.8,4,2.3,4c0,0,0,0,0,0
	C1.9,4,1.5,3.9,1.1,3.5C0.8,3.2,0.6,2.8,0.6,2.3c0-0.9,0.7-1.7,1.7-1.7c0,0,0,0,0,0c0.4,0,0.9,0.2,1.2,0.5C3.9,1.5,4,1.9,4,2.3z"/>
<path class="st0" d="M2.8,2.3l0.6-0.6c0,0,0,0,0-0.1c0.1-0.1,0.1-0.3,0-0.4C3.3,1.2,3.1,1.2,3,1.3L2.3,1.9L1.7,1.3c0,0,0,0,0,0
	c-0.1,0-0.1-0.1-0.2-0.1c-0.1,0-0.1,0-0.2,0.1c-0.1,0.1-0.1,0.3,0,0.4l0.6,0.6L1.3,3c0,0,0,0,0,0.1c-0.1,0.1-0.1,0.3,0,0.4
	c0.1,0,0.1,0.1,0.2,0.1c0.1,0,0.2,0,0.2-0.1C1.9,3.2,2.1,3,2.3,2.8c0,0,0,0,0,0L3,3.4c0,0,0,0,0,0c0.1,0.1,0.3,0.1,0.4,0
	c0.1-0.1,0.1-0.3,0-0.4L2.8,2.3z"/>
</svg>
