<svg width="18" height="15" viewBox="0 0 18 15" fill="none" xmlns="http://www.w3.org/2000/svg">
<path d="M16.672 1.70753L11.572 0.0418899H11.5125C11.4729 0.0379936 11.4331 0.0379936 11.3935 0.0418899H11.198H11.0875H11.028L6.2 1.66589L1.372 0.0418899C1.24418 0.000591649 1.10817 -0.0103734 0.975168 0.00989696C0.84217 0.0301674 0.715986 0.0810938 0.607003 0.158485C0.497147 0.235118 0.407478 0.336261 0.345402 0.453558C0.283327 0.570856 0.250626 0.700942 0.250003 0.833068V12.4925C0.249543 12.6671 0.305099 12.8375 0.408818 12.9794C0.512538 13.1214 0.659175 13.2279 0.828003 13.2837L5.928 14.9494C6.09923 15.0041 6.28377 15.0041 6.455 14.9494L11.3 13.367L16.128 14.991C16.2183 15.003 16.3097 15.003 16.4 14.991C16.5777 14.9935 16.7512 14.9378 16.893 14.8328C17.0029 14.7561 17.0925 14.655 17.1546 14.5377C17.2167 14.4204 17.2494 14.2903 17.25 14.1582V2.49871C17.2505 2.32411 17.1949 2.15379 17.0912 2.01182C16.9875 1.86984 16.8408 1.7634 16.672 1.70753ZM5.35 13.0006L1.95 11.8929V1.99069L5.35 3.09834V13.0006ZM10.45 11.8929L7.05 13.0006V3.09834L10.45 1.99069V11.8929ZM15.55 13.0006L12.15 11.8929V1.99069L15.55 3.09834V13.0006Z" fill="black"/>
</svg>
