<svg width="480" height="257" viewBox="0 0 480 257" fill="none" xmlns="http://www.w3.org/2000/svg">
<path d="M392.012 13.5098C387.028 17.7905 383.02 23.0909 380.26 29.0529C377.5 35.015 376.051 41.4999 376.012 48.0698C376.049 58.3823 379.605 68.3731 386.092 76.3898L320.652 163.11C308.792 158.951 295.871 158.951 284.012 163.11L218.572 76.3898C225.174 68.4162 228.844 58.4211 228.972 48.0698C228.932 41.4999 227.484 35.015 224.723 29.0529C221.963 23.0909 217.956 17.7905 212.972 13.5098C203.001 4.79984 190.211 0 176.972 0C163.732 0 150.942 4.79984 140.972 13.5098C135.988 17.7905 131.98 23.0909 129.22 29.0529C126.46 35.015 125.011 41.4999 124.972 48.0698C125.009 58.3823 128.565 68.3731 135.052 76.3898L69.9316 163.11C60.8026 159.908 50.988 159.184 41.4879 161.011C31.9879 162.838 23.1419 167.151 15.8516 173.51C10.8784 177.791 6.88763 183.094 4.15192 189.059C1.41622 195.023 0 201.508 0 208.07C0 214.632 1.41622 221.116 4.15192 227.081C6.88763 233.045 10.8784 238.349 15.8516 242.63C25.8222 251.34 38.6124 256.14 51.8516 256.14C65.0908 256.14 77.8811 251.34 87.8516 242.63C92.8357 238.349 96.8431 233.049 99.6033 227.087C102.364 221.125 103.812 214.64 103.852 208.07C103.852 198.921 101.061 189.99 95.8516 182.47L162.572 93.8298C172.265 96.8253 182.638 96.8253 192.332 93.8298L259.212 182.47C253.955 189.976 251.109 198.906 251.052 208.07C251.091 214.64 252.54 221.125 255.3 227.087C258.06 233.049 262.068 238.349 267.052 242.63C277.022 251.34 289.812 256.14 303.052 256.14C316.291 256.14 329.081 251.34 339.052 242.63C344.036 238.349 348.043 233.049 350.803 227.087C353.564 221.125 355.012 214.64 355.052 208.07C355.005 198.904 352.158 189.972 346.892 182.47L413.612 93.8298C418.447 95.2502 423.453 96.0039 428.492 96.0698C441.515 96.007 454.075 91.233 463.852 82.6298C468.825 78.349 472.816 73.0452 475.551 67.0808C478.287 61.1164 479.703 54.6317 479.703 48.0698C479.703 41.5079 478.287 35.0233 475.551 29.0589C472.816 23.0944 468.825 17.7907 463.852 13.5098C453.892 4.84318 441.134 0.0697479 427.932 0.0697479C414.729 0.0697479 401.972 4.84318 392.012 13.5098ZM66.4116 218.79C62.289 222.254 57.0766 224.154 51.6916 224.154C46.3066 224.154 41.0942 222.254 36.9716 218.79C35.3424 217.518 34.0246 215.891 33.1182 214.034C32.2118 212.176 31.7407 210.137 31.7407 208.07C31.7407 206.003 32.2118 203.963 33.1182 202.106C34.0246 200.248 35.3424 198.622 36.9716 197.35C41.0942 193.885 46.3066 191.986 51.6916 191.986C57.0766 191.986 62.289 193.885 66.4116 197.35C68.0408 198.622 69.3586 200.248 70.265 202.106C71.1714 203.963 71.6425 206.003 71.6425 208.07C71.6425 210.137 71.1714 212.176 70.265 214.034C69.3586 215.891 68.0408 217.518 66.4116 218.79ZM162.412 58.7898C160.782 57.5179 159.465 55.8914 158.558 54.0339C157.652 52.1764 157.181 50.1367 157.181 48.0698C157.181 46.003 157.652 43.9633 158.558 42.1057C159.465 40.2482 160.782 38.6217 162.412 37.3498C166.534 33.8854 171.747 31.986 177.132 31.986C182.517 31.986 187.729 33.8854 191.852 37.3498C193.481 38.6217 194.799 40.2482 195.705 42.1057C196.611 43.9633 197.083 46.003 197.083 48.0698C197.083 50.1367 196.611 52.1764 195.705 54.0339C194.799 55.8914 193.481 57.5179 191.852 58.7898C187.729 62.2543 182.517 64.1537 177.132 64.1537C171.747 64.1537 166.534 62.2543 162.412 58.7898ZM317.292 218.79C313.169 222.254 307.957 224.154 302.572 224.154C297.187 224.154 291.974 222.254 287.852 218.79C286.222 217.518 284.905 215.891 283.998 214.034C283.092 212.176 282.621 210.137 282.621 208.07C282.621 206.003 283.092 203.963 283.998 202.106C284.905 200.248 286.222 198.622 287.852 197.35C291.974 193.885 297.187 191.986 302.572 191.986C307.957 191.986 313.169 193.885 317.292 197.35C318.921 198.622 320.239 200.248 321.145 202.106C322.051 203.963 322.523 206.003 322.523 208.07C322.523 210.137 322.051 212.176 321.145 214.034C320.239 215.891 318.921 217.518 317.292 218.79ZM442.732 58.7898C438.609 62.2543 433.397 64.1537 428.012 64.1537C422.627 64.1537 417.414 62.2543 413.292 58.7898C411.662 57.5179 410.345 55.8914 409.438 54.0339C408.532 52.1764 408.061 50.1367 408.061 48.0698C408.061 46.003 408.532 43.9633 409.438 42.1057C410.345 40.2482 411.662 38.6217 413.292 37.3498C417.414 33.8854 422.627 31.986 428.012 31.986C433.397 31.986 438.609 33.8854 442.732 37.3498C444.361 38.6217 445.679 40.2482 446.585 42.1057C447.491 43.9633 447.963 46.003 447.963 48.0698C447.963 50.1367 447.491 52.1764 446.585 54.0339C445.679 55.8914 444.361 57.5179 442.732 58.7898Z" fill="black"/>
</svg>
