<svg width="13" height="19" viewBox="0 0 13 19" fill="none" xmlns="http://www.w3.org/2000/svg">
<path d="M8.82136 6.64999C8.82136 7.96167 7.78202 9.02499 6.49993 9.02499C5.21784 9.02499 4.1785 7.96167 4.1785 6.64999C4.1785 5.33832 5.21784 4.27499 6.49993 4.27499C7.78202 4.27499 8.82136 5.33832 8.82136 6.64999Z" fill="black"/>
<path fill-rule="evenodd" clip-rule="evenodd" d="M0 6.65C0 2.9735 2.90643 0 6.5 0C10.0936 0 13 2.9735 13 6.65C13 11.6375 6.5 19 6.5 19C6.5 19 0 11.6375 0 6.65ZM6.5 1.9C3.93714 1.9 1.85714 4.028 1.85714 6.65C1.85714 9.3575 4.56857 13.4995 6.5 16.036C8.46857 13.4805 11.1429 9.386 11.1429 6.65C11.1429 4.028 9.06286 1.9 6.5 1.9Z" fill="black"/>
</svg>
