<?xml version="1.0" encoding="utf-8"?>
<!-- Generator: Adobe Illustrator 26.4.1, SVG Export Plug-In . SVG Version: 6.00 Build 0)  -->
<svg version="1.1" id="Capa_1" xmlns="http://www.w3.org/2000/svg" xmlns:xlink="http://www.w3.org/1999/xlink" x="0px" y="0px"
	 viewBox="0 0 179.1 179.1" style="enable-background:new 0 0 179.1 179.1;" xml:space="preserve">
<style type="text/css">
	.st0{fill:url(#SVGID_1_);}
	.st1{fill:url(#SVGID_00000147910187301845203790000005642717350159237807_);}
</style>
<g>
	<g>
		
			<image style="overflow:visible;opacity:0.34;" width="890" height="889" xlink:href="9E09105C.png"  transform="matrix(0.24 0 0 0.24 -16.9034 -17.1434)">
		</image>
		<g>
			
				<linearGradient id="SVGID_1_" gradientUnits="userSpaceOnUse" x1="106.5807" y1="-375.6427" x2="231.7039" y2="-375.6427" gradientTransform="matrix(0.6903 0.7236 -0.7236 0.6903 -314.8027 210.0348)">
				<stop  offset="0" style="stop-color:#FABB41"/>
				<stop  offset="0.2404" style="stop-color:#FAB53D"/>
				<stop  offset="0.5685" style="stop-color:#F9A331"/>
				<stop  offset="0.9458" style="stop-color:#F7871D"/>
				<stop  offset="1" style="stop-color:#F7821A"/>
			</linearGradient>
			<polygon class="st0" points="83.8,175.2 61.3,152.8 29.6,150.1 26.8,118.4 4.3,96 22.5,69.9 19.6,38.3 50.3,30 68.5,3.9 
				97.3,17.3 128,9 141.5,37.8 170.3,51.1 162.1,81.9 175.6,110.6 149.6,128.9 141.5,159.6 109.8,156.9 			"/>
		</g>
	</g>
	<g>
		
			<image style="overflow:visible;opacity:0.32;" width="677" height="678" xlink:href="9E09105F.png"  transform="matrix(0.24 0 0 0.24 10.6966 9.2566)">
		</image>
		<g>
			
				<linearGradient id="SVGID_00000070832266892642611910000002964015903108571024_" gradientUnits="userSpaceOnUse" x1="60.9224" y1="27.4205" x2="193.3025" y2="27.4205" gradientTransform="matrix(0.9919 0.1267 -0.1267 0.9919 -32.7138 46.3796)">
				<stop  offset="0" style="stop-color:#FFFFFF"/>
				<stop  offset="0.1091" style="stop-color:#FFF5E0"/>
				<stop  offset="0.2279" style="stop-color:#FFEDC6"/>
				<stop  offset="0.3597" style="stop-color:#FFE7B2"/>
				<stop  offset="0.5092" style="stop-color:#FFE2A4"/>
				<stop  offset="0.6916" style="stop-color:#FFE09B"/>
				<stop  offset="1" style="stop-color:#FFDF99"/>
			</linearGradient>
			<circle style="fill:url(#SVGID_00000070832266892642611910000002964015903108571024_);" cx="89.9" cy="89.7" r="66.2"/>
		</g>
	</g>
</g>
</svg>
