<?xml version="1.0" encoding="UTF-8"?>
<svg id="Capa_2" data-name="Capa 2" xmlns="http://www.w3.org/2000/svg" xmlns:xlink="http://www.w3.org/1999/xlink" viewBox="0 0 161.74 131.66">
  <defs>
    <style>
      .cls-1 {
        fill: url(#radial-gradient);
      }

      .cls-2 {
        fill: url(#linear-gradient);
        filter: url(#outer-glow-1);
      }
    </style>
    <radialGradient id="radial-gradient" cx="66.28" cy="79.43" fx="46" fy="79.43" r="84.07" gradientUnits="userSpaceOnUse">
      <stop offset=".16" stop-color="#fefefe"/>
      <stop offset=".37" stop-color="#f6f5f4"/>
      <stop offset=".74" stop-color="#e2ded9"/>
      <stop offset="1" stop-color="#d1cbc3"/>
    </radialGradient>
    <linearGradient id="linear-gradient" x1="21.43" y1="58.28" x2="87.93" y2="58.28" gradientUnits="userSpaceOnUse">
      <stop offset="0" stop-color="#fabb41"/>
      <stop offset=".24" stop-color="#f9b43c"/>
      <stop offset=".57" stop-color="#f8a330"/>
      <stop offset=".95" stop-color="#f7861d"/>
      <stop offset="1" stop-color="#f7821a"/>
    </linearGradient>
    <filter id="outer-glow-1" filterUnits="userSpaceOnUse">
      <feOffset dx="0" dy="0"/>
      <feGaussianBlur result="blur" stdDeviation="7"/>
      <feFlood flood-color="#fabb41" flood-opacity=".34"/>
      <feComposite in2="blur" operator="in"/>
      <feComposite in="SourceGraphic"/>
    </filter>
  </defs>
  <g id="Icons">
    <g>
      <path class="cls-1" d="M140.76,86.37c.28-1.43,.43-2.91,.43-4.43,0-12.71-10.3-23.01-23.01-23.01-2.33,0-4.57,.35-6.69,.99-5.63-12.53-18.21-21.27-32.85-21.27-19.34,0-35.11,15.25-35.96,34.37-15.98,.25-28.86,13.27-28.86,29.31s12.29,28.46,27.75,29.28c.21,.03,.43,.04,.65,.04h96.67s.04,0,.06,0c.04,0,.08,0,.11,0,12.52,0,22.68-10.15,22.68-22.68s-9.25-21.74-20.99-22.61Z"/>
      <path class="cls-2" d="M44.85,51.8c-2.18-11.31,.99-22.41,7.73-30.7-.25,.04-.51,.08-.76,.13-20.31,3.91-33.61,23.54-29.7,43.85,3.91,20.31,23.54,33.61,43.85,29.7,9-1.73,16.61-6.55,21.97-13.14-20.04,3.43-39.23-9.77-43.08-29.83Z"/>
    </g>
  </g>
</svg>