<?xml version="1.0" encoding="UTF-8"?>
<svg id="Capa_2" data-name="Capa 2" xmlns="http://www.w3.org/2000/svg" xmlns:xlink="http://www.w3.org/1999/xlink" viewBox="0 0 147.92 153.54">
  <defs>
    <style>
      .cls-1 {
        fill: url(#radial-gradient-5);
      }

      .cls-2 {
        fill: url(#radial-gradient-4);
      }

      .cls-3 {
        fill: url(#radial-gradient-6);
      }

      .cls-4 {
        fill: url(#radial-gradient);
      }

      .cls-5 {
        fill: url(#radial-gradient-2);
      }

      .cls-6 {
        fill: url(#radial-gradient-3);
      }
    </style>
    <radialGradient id="radial-gradient" cx="48.65" cy="133.02" fx="48.65" fy="133.02" r="12.01" gradientUnits="userSpaceOnUse">
      <stop offset=".16" stop-color="#fefefe"/>
      <stop offset=".37" stop-color="#f6f5f4"/>
      <stop offset=".74" stop-color="#e2ded9"/>
      <stop offset="1" stop-color="#d1cbc3"/>
    </radialGradient>
    <radialGradient id="radial-gradient-2" cx="112.1" cy="115.3" fx="112.1" fy="115.3" r="15.82" xlink:href="#radial-gradient"/>
    <radialGradient id="radial-gradient-3" cx="73.54" cy="109.92" fx="73.54" fy="109.92" r="6.85" xlink:href="#radial-gradient"/>
    <radialGradient id="radial-gradient-4" cx="84.3" cy="146.69" fx="84.3" fy="146.69" r="6.85" xlink:href="#radial-gradient"/>
    <radialGradient id="radial-gradient-5" cx="27.8" cy="108.13" fx="27.8" fy="108.13" r="6.85" xlink:href="#radial-gradient"/>
    <radialGradient id="radial-gradient-6" cx="52.46" cy="40.77" fx="32.18" fy="40.77" r="84.07" xlink:href="#radial-gradient"/>
  </defs>
  <g id="Icons">
    <g>
      <path class="cls-4" d="M60.05,132.41h-2.12l1.49-1.36c.15-.14,.16-.37,.02-.52-.14-.15-.37-.16-.52-.02l-2.09,1.9h-3.86c-.12-.74-.42-1.41-.86-1.97l2.81-2.81,2.81-.13c.2,0,.36-.18,.35-.38,0-.2-.18-.36-.38-.35l-2,.1,1.49-1.49c.24-.24,.24-.62,0-.86-.24-.24-.62-.24-.86,0l-1.5,1.5,.1-2.03c0-.2-.15-.37-.35-.38-.21,0-.37,.15-.38,.35l-.13,2.83-2.82,2.82c-.57-.41-1.25-.68-1.98-.76v-4.03l1.88-2.07c.14-.15,.12-.38-.02-.52-.15-.14-.38-.12-.52,.02l-1.34,1.48v-2.1c0-.34-.27-.61-.61-.61s-.61,.27-.61,.61v2.12l-1.36-1.49c-.14-.15-.37-.16-.52-.02-.15,.14-.16,.37-.02,.52l1.9,2.09v4.05c-.67,.12-1.29,.39-1.81,.78l-2.9-2.9-.13-2.81c0-.2-.17-.36-.38-.35-.2,0-.36,.18-.35,.38l.1,2-1.53-1.53c-.24-.24-.62-.24-.86,0-.24,.24-.24,.62,0,.86l1.54,1.54-2.03-.1c-.21,0-.37,.15-.38,.35,0,.2,.15,.37,.35,.38l2.83,.13,2.88,2.88c-.41,.55-.69,1.19-.8,1.9h-4.05l-2.09-1.9c-.15-.14-.38-.12-.52,.02-.14,.15-.12,.38,.02,.52l1.49,1.36h-2.17c-.34,0-.61,.27-.61,.61s.27,.61,.61,.61h2.16l-1.48,1.34c-.15,.14-.16,.37-.02,.52,.07,.08,.17,.12,.27,.12,.09,0,.18-.03,.25-.1l2.07-1.88h4.05c.09,.71,.36,1.36,.75,1.91l-2.82,2.82-2.83,.13c-.2,0-.36,.18-.35,.38,0,.2,.17,.35,.36,.35,0,0,.01,0,.02,0l2.03-.1-1.54,1.54c-.24,.24-.24,.62,0,.86,.12,.12,.27,.18,.43,.18s.31-.06,.43-.18l1.53-1.53-.1,2c0,.2,.15,.37,.35,.38,0,0,.01,0,.02,0,.19,0,.36-.15,.36-.35l.13-2.81,2.81-2.81c.54,.43,1.19,.73,1.9,.85v3.88l-1.9,2.09c-.14,.15-.12,.38,.02,.52,.07,.06,.16,.1,.25,.1,.1,0,.2-.04,.27-.12l1.36-1.49v2.17c0,.34,.27,.61,.61,.61s.61-.27,.61-.61v-2.16l1.34,1.48c.07,.08,.17,.12,.27,.12,.09,0,.18-.03,.25-.1,.15-.14,.16-.37,.02-.52l-1.88-2.07v-3.86c.77-.09,1.48-.39,2.07-.83l2.73,2.73,.13,2.83c0,.2,.17,.35,.36,.35,0,0,.01,0,.02,0,.2,0,.36-.18,.35-.38l-.1-2.03,1.5,1.5c.12,.12,.27,.18,.43,.18s.31-.06,.43-.18c.24-.24,.24-.62,0-.86l-1.49-1.49,2.01,.1s.01,0,.02,0c.19,0,.36-.15,.36-.35,0-.2-.15-.37-.35-.38l-2.81-.13-2.74-2.74c.42-.57,.71-1.25,.81-1.98h3.86l2.07,1.88c.07,.06,.16,.1,.25,.1,.1,0,.2-.04,.27-.12,.14-.15,.12-.38-.02-.52l-1.48-1.34h2.1c.34,0,.61-.27,.61-.61s-.27-.61-.61-.61Zm-7.8,0h-2.09l1.45-1.45c.32,.42,.54,.91,.64,1.45Zm-1.53-2.29l-1.45,1.45v-2c.53,.07,1.03,.26,1.45,.55Zm-2.67-.51v1.85l-1.29-1.29c.38-.27,.82-.46,1.29-.56Zm-2.15,1.42l1.38,1.38h-1.96c.1-.5,.3-.97,.59-1.38Zm-.6,2.59h1.92l-1.39,1.39c-.27-.41-.46-.88-.54-1.39Zm1.38,2.27l1.38-1.38v2.01c-.51-.11-.98-.33-1.38-.63Zm2.6,.67v-2.16l1.55,1.55c-.45,.32-.98,.53-1.55,.61Zm2.41-1.48l-1.46-1.46h2.05c-.09,.54-.29,1.03-.59,1.46Z"/>
      <path class="cls-5" d="M127.12,114.51h-2.79l1.97-1.79c.2-.18,.21-.48,.03-.68-.18-.2-.48-.21-.68-.03l-2.75,2.5h-5.08c-.15-.97-.55-1.86-1.13-2.6l3.71-3.71,3.7-.18c.27-.01,.47-.24,.46-.5-.01-.27-.23-.47-.5-.46l-2.64,.13,1.97-1.97c.31-.31,.31-.82,0-1.14-.31-.31-.82-.31-1.14,0l-1.98,1.98,.13-2.67c.01-.27-.19-.49-.46-.5-.27-.01-.49,.19-.5,.46l-.18,3.73-3.72,3.72c-.75-.54-1.64-.89-2.61-1v-5.31l2.48-2.73c.18-.2,.16-.5-.03-.68-.2-.18-.5-.16-.68,.03l-1.77,1.95v-2.77c0-.44-.36-.8-.8-.8s-.8,.36-.8,.8v2.79l-1.79-1.97c-.18-.2-.48-.21-.68-.03-.2,.18-.21,.48-.03,.68l2.5,2.75v5.34c-.88,.15-1.69,.51-2.39,1.03l-3.82-3.82-.18-3.7c-.01-.27-.23-.47-.5-.46-.27,.01-.47,.24-.46,.5l.13,2.64-2.02-2.02c-.31-.31-.82-.31-1.14,0-.31,.31-.31,.82,0,1.14l2.03,2.03-2.67-.13c-.28-.01-.49,.19-.5,.46-.01,.27,.19,.49,.46,.5l3.73,.18,3.8,3.8c-.54,.72-.91,1.57-1.06,2.5h-5.34l-2.75-2.5c-.2-.18-.5-.16-.68,.03-.18,.2-.16,.5,.03,.68l1.97,1.79h-2.86c-.44,0-.8,.36-.8,.8s.36,.8,.8,.8h2.84l-1.95,1.77c-.2,.18-.21,.48-.03,.68,.1,.1,.23,.16,.36,.16,.12,0,.23-.04,.32-.13l2.73-2.48h5.34c.12,.93,.47,1.79,.99,2.52l-3.71,3.71-3.73,.18c-.27,.01-.47,.24-.46,.5,.01,.26,.23,.46,.48,.46,0,0,.02,0,.02,0l2.67-.13-2.03,2.03c-.31,.31-.31,.82,0,1.14,.16,.16,.36,.24,.57,.24s.41-.08,.57-.24l2.02-2.02-.13,2.64c-.01,.27,.19,.49,.46,.5,0,0,.02,0,.02,0,.26,0,.47-.2,.48-.46l.18-3.7,3.7-3.7c.72,.56,1.57,.96,2.51,1.12v5.11l-2.5,2.75c-.18,.2-.16,.5,.03,.68,.09,.08,.21,.13,.32,.13,.13,0,.26-.05,.36-.16l1.79-1.97v2.86c0,.44,.36,.8,.8,.8s.8-.36,.8-.8v-2.84l1.77,1.95c.1,.1,.23,.16,.36,.16,.12,0,.23-.04,.32-.13,.2-.18,.21-.48,.03-.68l-2.48-2.73v-5.08c1.02-.12,1.95-.51,2.73-1.1l3.6,3.6,.18,3.73c.01,.26,.23,.46,.48,.46,0,0,.02,0,.02,0,.27-.01,.47-.24,.46-.5l-.13-2.67,1.98,1.98c.16,.16,.36,.24,.57,.24s.41-.08,.57-.24c.31-.31,.31-.82,0-1.14l-1.97-1.97,2.64,.13s.02,0,.02,0c.26,0,.47-.2,.48-.46,.01-.27-.19-.49-.46-.5l-3.7-.18-3.61-3.61c.56-.75,.93-1.64,1.06-2.61h5.08l2.73,2.48c.09,.08,.21,.13,.32,.13,.13,0,.26-.05,.36-.16,.18-.2,.16-.5-.03-.68l-1.95-1.77h2.77c.44,0,.8-.36,.8-.8s-.36-.8-.8-.8Zm-10.27,0h-2.75l1.91-1.91c.42,.55,.71,1.2,.85,1.91Zm-2.01-3.01l-1.92,1.92v-2.64c.7,.1,1.35,.35,1.92,.72Zm-3.52-.67v2.44l-1.7-1.7c.5-.35,1.08-.61,1.7-.74Zm-2.84,1.87l1.81,1.81h-2.59c.13-.67,.4-1.28,.77-1.81Zm-.8,3.42h2.54l-1.83,1.83c-.36-.54-.6-1.16-.71-1.83Zm1.81,2.99l1.82-1.82v2.65c-.67-.14-1.29-.43-1.82-.83Zm3.43,.88v-2.85l2.04,2.04c-.59,.42-1.29,.7-2.04,.81Zm3.17-1.95l-1.93-1.93h2.7c-.11,.71-.38,1.36-.78,1.93Z"/>
      <path class="cls-6" d="M80.04,109.58h-1.21l.85-.78c.09-.08,.09-.21,.01-.29-.08-.09-.21-.09-.29-.01l-1.19,1.08h-2.2c-.07-.42-.24-.8-.49-1.12l1.6-1.6,1.6-.08c.12,0,.2-.1,.2-.22,0-.12-.1-.2-.22-.2l-1.14,.05,.85-.85c.14-.14,.14-.36,0-.49-.14-.14-.36-.14-.49,0l-.86,.86,.05-1.16c0-.12-.08-.21-.2-.22-.12,0-.21,.08-.22,.2l-.08,1.61-1.61,1.61c-.33-.23-.71-.39-1.13-.43v-2.3l1.08-1.18c.08-.09,.07-.22-.01-.29-.08-.08-.22-.07-.29,.01l-.77,.84v-1.2c0-.19-.16-.35-.35-.35s-.35,.16-.35,.35v1.21l-.78-.85c-.08-.09-.21-.09-.29-.01-.09,.08-.09,.21-.01,.29l1.08,1.19v2.31c-.38,.07-.73,.22-1.03,.44l-1.65-1.65-.08-1.6c0-.12-.1-.2-.22-.2-.12,0-.2,.1-.2,.22l.05,1.14-.87-.87c-.14-.14-.36-.14-.49,0-.14,.14-.14,.36,0,.49l.88,.88-1.16-.05c-.12,0-.21,.08-.22,.2,0,.12,.08,.21,.2,.22l1.61,.08,1.65,1.65c-.23,.31-.4,.68-.46,1.08h-2.31l-1.19-1.08c-.09-.08-.22-.07-.29,.01-.08,.09-.07,.22,.01,.29l.85,.78h-1.24c-.19,0-.35,.16-.35,.35s.16,.35,.35,.35h1.23l-.84,.77c-.09,.08-.09,.21-.01,.29,.04,.05,.1,.07,.15,.07,.05,0,.1-.02,.14-.05l1.18-1.08h2.31c.05,.4,.2,.77,.43,1.09l-1.61,1.61-1.61,.08c-.12,0-.2,.1-.2,.22,0,.11,.1,.2,.21,.2,0,0,0,0,.01,0l1.16-.06-.88,.88c-.14,.14-.14,.36,0,.49,.07,.07,.16,.1,.25,.1s.18-.03,.25-.1l.87-.87-.05,1.14c0,.12,.08,.21,.2,.22,0,0,0,0,.01,0,.11,0,.2-.09,.21-.2l.08-1.6,1.6-1.6c.31,.24,.68,.41,1.09,.48v2.21l-1.08,1.19c-.08,.09-.07,.22,.01,.29,.04,.04,.09,.05,.14,.05,.06,0,.11-.02,.15-.07l.78-.85v1.24c0,.19,.16,.35,.35,.35s.35-.16,.35-.35v-1.23l.77,.84s.1,.07,.15,.07c.05,0,.1-.02,.14-.05,.09-.08,.09-.21,.01-.29l-1.08-1.18v-2.2c.44-.05,.84-.22,1.18-.47l1.56,1.56,.08,1.61c0,.11,.1,.2,.21,.2,0,0,0,0,.01,0,.12,0,.2-.1,.2-.22l-.05-1.16,.86,.86c.07,.07,.16,.1,.25,.1s.18-.03,.25-.1c.14-.14,.14-.36,0-.49l-.85-.85,1.14,.05s0,0,.01,0c.11,0,.2-.09,.21-.2,0-.12-.08-.21-.2-.22l-1.6-.08-1.57-1.57c.24-.32,.4-.71,.46-1.13h2.2l1.18,1.08s.09,.05,.14,.05c.06,0,.11-.02,.15-.07,.08-.09,.07-.22-.01-.29l-.84-.77h1.2c.19,0,.35-.16,.35-.35s-.16-.35-.35-.35Zm-4.45,0h-1.19l.83-.83c.18,.24,.31,.52,.37,.83Zm-.87-1.3l-.83,.83v-1.14c.3,.04,.58,.15,.83,.31Zm-1.52-.29v1.06l-.74-.74c.22-.15,.47-.26,.74-.32Zm-1.23,.81l.78,.78h-1.12c.05-.29,.17-.55,.34-.78Zm-.34,1.48h1.1l-.79,.79c-.15-.23-.26-.5-.31-.79Zm.78,1.3l.79-.79v1.15c-.29-.06-.56-.19-.79-.36Zm1.48,.38v-1.23l.88,.88c-.26,.18-.56,.3-.88,.35Zm1.37-.84l-.83-.83h1.17c-.05,.31-.17,.59-.34,.83Z"/>
      <path class="cls-2" d="M90.8,146.35h-1.21l.85-.78c.09-.08,.09-.21,.01-.29-.08-.09-.21-.09-.29-.01l-1.19,1.08h-2.2c-.07-.42-.24-.8-.49-1.12l1.6-1.6,1.6-.08c.12,0,.2-.1,.2-.22,0-.12-.1-.2-.22-.2l-1.14,.05,.85-.85c.14-.14,.14-.36,0-.49-.14-.14-.36-.14-.49,0l-.86,.86,.05-1.16c0-.12-.08-.21-.2-.22-.12,0-.21,.08-.22,.2l-.08,1.61-1.61,1.61c-.33-.23-.71-.39-1.13-.43v-2.3l1.08-1.18c.08-.09,.07-.22-.01-.29-.08-.08-.22-.07-.29,.01l-.77,.84v-1.2c0-.19-.16-.35-.35-.35s-.35,.16-.35,.35v1.21l-.78-.85c-.08-.09-.21-.09-.29-.01-.09,.08-.09,.21-.01,.29l1.08,1.19v2.31c-.38,.07-.73,.22-1.03,.44l-1.65-1.65-.08-1.6c0-.12-.1-.2-.22-.2-.12,0-.2,.1-.2,.22l.05,1.14-.87-.87c-.14-.14-.36-.14-.49,0-.14,.14-.14,.36,0,.49l.88,.88-1.16-.05c-.12,0-.21,.08-.22,.2,0,.12,.08,.21,.2,.22l1.61,.08,1.65,1.65c-.23,.31-.4,.68-.46,1.08h-2.31l-1.19-1.08c-.09-.08-.22-.07-.29,.01-.08,.09-.07,.22,.01,.29l.85,.78h-1.24c-.19,0-.35,.16-.35,.35s.16,.35,.35,.35h1.23l-.84,.77c-.09,.08-.09,.21-.01,.29,.04,.05,.1,.07,.15,.07,.05,0,.1-.02,.14-.05l1.18-1.08h2.31c.05,.4,.2,.77,.43,1.09l-1.61,1.61-1.61,.08c-.12,0-.2,.1-.2,.22,0,.11,.1,.2,.21,.2,0,0,0,0,.01,0l1.16-.06-.88,.88c-.14,.14-.14,.36,0,.49,.07,.07,.16,.1,.25,.1s.18-.03,.25-.1l.87-.87-.05,1.14c0,.12,.08,.21,.2,.22,0,0,0,0,.01,0,.11,0,.2-.09,.21-.2l.08-1.6,1.6-1.6c.31,.24,.68,.41,1.09,.48v2.21l-1.08,1.19c-.08,.09-.07,.22,.01,.29,.04,.04,.09,.05,.14,.05,.06,0,.11-.02,.15-.07l.78-.85v1.24c0,.19,.16,.35,.35,.35s.35-.16,.35-.35v-1.23l.77,.84s.1,.07,.15,.07c.05,0,.1-.02,.14-.05,.09-.08,.09-.21,.01-.29l-1.08-1.18v-2.2c.44-.05,.84-.22,1.18-.47l1.56,1.56,.08,1.61c0,.11,.1,.2,.21,.2,0,0,0,0,.01,0,.12,0,.2-.1,.2-.22l-.05-1.16,.86,.86c.07,.07,.16,.1,.25,.1s.18-.03,.25-.1c.14-.14,.14-.36,0-.49l-.85-.85,1.14,.05s0,0,.01,0c.11,0,.2-.09,.21-.2,0-.12-.08-.21-.2-.22l-1.6-.08-1.57-1.57c.24-.32,.4-.71,.46-1.13h2.2l1.18,1.08s.09,.05,.14,.05c.06,0,.11-.02,.15-.07,.08-.09,.07-.22-.01-.29l-.84-.77h1.2c.19,0,.35-.16,.35-.35s-.16-.35-.35-.35Zm-4.45,0h-1.19l.83-.83c.18,.24,.31,.52,.37,.83Zm-.87-1.3l-.83,.83v-1.14c.3,.04,.58,.15,.83,.31Zm-1.52-.29v1.06l-.74-.74c.22-.15,.47-.26,.74-.32Zm-1.23,.81l.78,.78h-1.12c.05-.29,.17-.55,.34-.78Zm-.34,1.48h1.1l-.79,.79c-.15-.23-.26-.5-.31-.79Zm.78,1.3l.79-.79v1.15c-.29-.06-.56-.19-.79-.36Zm1.48,.38v-1.23l.88,.88c-.26,.18-.56,.3-.88,.35Zm1.37-.84l-.83-.83h1.17c-.05,.31-.17,.59-.34,.83Z"/>
      <path class="cls-1" d="M34.3,107.78h-1.21l.85-.78c.09-.08,.09-.21,.01-.29-.08-.09-.21-.09-.29-.01l-1.19,1.08h-2.2c-.07-.42-.24-.8-.49-1.12l1.6-1.6,1.6-.08c.12,0,.2-.1,.2-.22,0-.12-.1-.2-.22-.2l-1.14,.05,.85-.85c.14-.14,.14-.36,0-.49-.14-.14-.36-.14-.49,0l-.86,.86,.05-1.16c0-.12-.08-.21-.2-.22-.12,0-.21,.08-.22,.2l-.08,1.61-1.61,1.61c-.33-.23-.71-.39-1.13-.43v-2.3l1.08-1.18c.08-.09,.07-.22-.01-.29-.08-.08-.22-.07-.29,.01l-.77,.84v-1.2c0-.19-.16-.35-.35-.35s-.35,.16-.35,.35v1.21l-.78-.85c-.08-.09-.21-.09-.29-.01-.09,.08-.09,.21-.01,.29l1.08,1.19v2.31c-.38,.07-.73,.22-1.03,.44l-1.65-1.65-.08-1.6c0-.12-.1-.2-.22-.2-.12,0-.2,.1-.2,.22l.05,1.14-.87-.87c-.14-.14-.36-.14-.49,0-.14,.14-.14,.36,0,.49l.88,.88-1.16-.05c-.12,0-.21,.08-.22,.2,0,.12,.08,.21,.2,.22l1.61,.08,1.65,1.65c-.23,.31-.4,.68-.46,1.08h-2.31l-1.19-1.08c-.09-.08-.22-.07-.29,.01-.08,.09-.07,.22,.01,.29l.85,.78h-1.24c-.19,0-.35,.16-.35,.35s.16,.35,.35,.35h1.23l-.84,.77c-.09,.08-.09,.21-.01,.29,.04,.05,.1,.07,.15,.07,.05,0,.1-.02,.14-.05l1.18-1.08h2.31c.05,.4,.2,.77,.43,1.09l-1.61,1.61-1.61,.08c-.12,0-.2,.1-.2,.22,0,.11,.1,.2,.21,.2,0,0,0,0,.01,0l1.16-.06-.88,.88c-.14,.14-.14,.36,0,.49,.07,.07,.16,.1,.25,.1s.18-.03,.25-.1l.87-.87-.05,1.14c0,.12,.08,.21,.2,.22,0,0,0,0,.01,0,.11,0,.2-.09,.21-.2l.08-1.6,1.6-1.6c.31,.24,.68,.41,1.09,.48v2.21l-1.08,1.19c-.08,.09-.07,.22,.01,.29,.04,.04,.09,.05,.14,.05,.06,0,.11-.02,.15-.07l.78-.85v1.24c0,.19,.16,.35,.35,.35s.35-.16,.35-.35v-1.23l.77,.84s.1,.07,.15,.07c.05,0,.1-.02,.14-.05,.09-.08,.09-.21,.01-.29l-1.08-1.18v-2.2c.44-.05,.84-.22,1.18-.47l1.56,1.56,.08,1.61c0,.11,.1,.2,.21,.2,0,0,0,0,.01,0,.12,0,.2-.1,.2-.22l-.05-1.16,.86,.86c.07,.07,.16,.1,.25,.1s.18-.03,.25-.1c.14-.14,.14-.36,0-.49l-.85-.85,1.14,.05s0,0,.01,0c.11,0,.2-.09,.21-.2,0-.12-.08-.21-.2-.22l-1.6-.08-1.57-1.57c.24-.32,.4-.71,.46-1.13h2.2l1.18,1.08s.09,.05,.14,.05c.06,0,.11-.02,.15-.07,.08-.09,.07-.22-.01-.29l-.84-.77h1.2c.19,0,.35-.16,.35-.35s-.16-.35-.35-.35Zm-4.45,0h-1.19l.83-.83c.18,.24,.31,.52,.37,.83Zm-.87-1.3l-.83,.83v-1.14c.3,.04,.58,.15,.83,.31Zm-1.52-.29v1.06l-.74-.74c.22-.15,.47-.26,.74-.32Zm-1.23,.81l.78,.78h-1.12c.05-.29,.17-.55,.34-.78Zm-.34,1.48h1.1l-.79,.79c-.15-.23-.26-.5-.31-.79Zm.78,1.3l.79-.79v1.15c-.29-.06-.56-.19-.79-.36Zm1.48,.38v-1.23l.88,.88c-.26,.18-.56,.3-.88,.35Zm1.37-.84l-.83-.83h1.17c-.05,.31-.17,.59-.34,.83Z"/>
      <path class="cls-3" d="M126.93,47.72c.28-1.43,.43-2.91,.43-4.43,0-12.71-10.3-23.01-23.01-23.01-2.33,0-4.57,.35-6.69,.99C92.03,8.73,79.45,0,64.82,0,45.48,0,29.71,15.25,28.86,34.37c-15.98,.25-28.86,13.27-28.86,29.31s12.29,28.46,27.75,29.28c.21,.03,.43,.04,.65,.04H125.07s.04,0,.06,0c.04,0,.08,0,.11,0,12.52,0,22.68-10.15,22.68-22.68s-9.25-21.74-20.99-22.61Z"/>
    </g>
  </g>
</svg>