<?xml version="1.0" encoding="UTF-8"?>
<svg id="Capa_2" data-name="Capa 2" xmlns="http://www.w3.org/2000/svg" xmlns:xlink="http://www.w3.org/1999/xlink" viewBox="0 0 176.33 95.97">
  <defs>
    <style>
      .cls-1 {
        fill: url(#radial-gradient);
      }

      .cls-2 {
        fill: url(#radial-gradient-2);
      }
    </style>
    <radialGradient id="radial-gradient" cx="-260.87" cy="-1.92" fx="-260.87" fy="-1.92" r="42.65" gradientTransform="translate(-126.54) rotate(-180) scale(1 -1)" gradientUnits="userSpaceOnUse">
      <stop offset="0" stop-color="#d1cbc3"/>
      <stop offset=".35" stop-color="#c7c1b9"/>
      <stop offset=".94" stop-color="#aca69f"/>
      <stop offset="1" stop-color="#aaa49d"/>
    </radialGradient>
    <radialGradient id="radial-gradient-2" cx="52.46" cy="43.74" fx="32.18" fy="43.74" r="84.07" gradientUnits="userSpaceOnUse">
      <stop offset=".16" stop-color="#fefefe"/>
      <stop offset=".37" stop-color="#f6f5f4"/>
      <stop offset=".74" stop-color="#e2ded9"/>
      <stop offset="1" stop-color="#d1cbc3"/>
    </radialGradient>
  </defs>
  <g id="Icons">
    <g>
      <path class="cls-1" d="M92.24,31.61c-.18-.95-.28-1.93-.28-2.93,0-8.42,6.82-15.24,15.24-15.24,1.54,0,3.03,.23,4.43,.66C115.36,5.79,123.7,0,133.39,0c12.81,0,23.25,10.1,23.82,22.77,10.59,.16,19.12,8.79,19.12,19.41s-8.14,18.85-18.38,19.39c-.14,.02-.29,.03-.43,.03H93.48s-.02,0-.04,0c-.03,0-.05,0-.08,0-8.3,0-15.02-6.73-15.02-15.02,0-7.92,6.13-14.4,13.9-14.98Z"/>
      <path class="cls-2" d="M126.93,50.68c.28-1.43,.43-2.91,.43-4.43,0-12.71-10.3-23.01-23.01-23.01-2.33,0-4.57,.35-6.69,.99-5.63-12.53-18.21-21.27-32.85-21.27-19.34,0-35.11,15.25-35.96,34.37-15.98,.25-28.86,13.27-28.86,29.31s12.29,28.46,27.75,29.28c.21,.03,.43,.04,.65,.04H125.07s.04,0,.06,0c.04,0,.08,0,.11,0,12.52,0,22.68-10.15,22.68-22.68s-9.25-21.74-20.99-22.61Z"/>
    </g>
  </g>
</svg>