<?xml version="1.0" encoding="UTF-8"?>
<svg id="Capa_2" data-name="Capa 2" xmlns="http://www.w3.org/2000/svg" xmlns:xlink="http://www.w3.org/1999/xlink" viewBox="0 0 176.33 177.54">
  <defs>
    <style>
      .cls-1 {
        fill: url(#radial-gradient-5);
      }

      .cls-2 {
        fill: url(#radial-gradient-4);
      }

      .cls-3 {
        fill: url(#radial-gradient);
      }

      .cls-4 {
        fill: url(#radial-gradient-2);
      }

      .cls-5 {
        fill: url(#radial-gradient-3);
      }

      .cls-6 {
        fill: url(#linear-gradient);
        filter: url(#outer-glow-1);
      }
    </style>
    <radialGradient id="radial-gradient" cx="727.13" cy="-1.92" fx="727.13" fy="-1.92" r="42.65" gradientTransform="translate(861.46) rotate(-180) scale(1 -1)" gradientUnits="userSpaceOnUse">
      <stop offset="0" stop-color="#d1cbc3"/>
      <stop offset=".35" stop-color="#c7c1b9"/>
      <stop offset=".94" stop-color="#aca69f"/>
      <stop offset="1" stop-color="#aaa49d"/>
    </radialGradient>
    <radialGradient id="radial-gradient-2" cx="52.46" cy="43.74" fx="32.18" fy="43.74" r="84.07" gradientUnits="userSpaceOnUse">
      <stop offset=".16" stop-color="#fefefe"/>
      <stop offset=".37" stop-color="#f6f5f4"/>
      <stop offset=".74" stop-color="#e2ded9"/>
      <stop offset="1" stop-color="#d1cbc3"/>
    </radialGradient>
    <radialGradient id="radial-gradient-3" cx="25.19" cy="120.32" fx="25.19" fy="120.32" r="9.84" gradientUnits="userSpaceOnUse">
      <stop offset="0" stop-color="#7dbac7"/>
      <stop offset=".45" stop-color="#7ab8c5"/>
      <stop offset=".7" stop-color="#72b4c1"/>
      <stop offset=".89" stop-color="#65aeb9"/>
      <stop offset="1" stop-color="#59a8b2"/>
    </radialGradient>
    <radialGradient id="radial-gradient-4" cx="90.89" cy="161.22" fx="90.89" fy="161.22" r="9.84" xlink:href="#radial-gradient-3"/>
    <radialGradient id="radial-gradient-5" cx="127.27" cy="120.43" fx="127.27" fy="120.43" r="5.09" xlink:href="#radial-gradient-3"/>
    <linearGradient id="linear-gradient" x1="47.2" y1="117.04" x2="90.25" y2="117.04" gradientUnits="userSpaceOnUse">
      <stop offset="0" stop-color="#fabb41"/>
      <stop offset=".24" stop-color="#f9b43c"/>
      <stop offset=".57" stop-color="#f8a330"/>
      <stop offset=".95" stop-color="#f7861d"/>
      <stop offset="1" stop-color="#f7821a"/>
    </linearGradient>
    <filter id="outer-glow-1" filterUnits="userSpaceOnUse">
      <feOffset dx="0" dy="0"/>
      <feGaussianBlur result="blur" stdDeviation="7"/>
      <feFlood flood-color="#fabb41" flood-opacity=".34"/>
      <feComposite in2="blur" operator="in"/>
      <feComposite in="SourceGraphic"/>
    </filter>
  </defs>
  <g id="Icons">
    <g>
      <g>
        <path class="cls-3" d="M92.24,31.61c-.18-.95-.28-1.93-.28-2.93,0-8.42,6.82-15.24,15.24-15.24,1.54,0,3.03,.23,4.43,.66C115.36,5.79,123.7,0,133.39,0c12.81,0,23.25,10.1,23.82,22.77,10.59,.16,19.12,8.79,19.12,19.41s-8.14,18.85-18.38,19.39c-.14,.02-.29,.03-.43,.03H93.48s-.02,0-.04,0c-.03,0-.05,0-.08,0-8.3,0-15.02-6.73-15.02-15.02,0-7.92,6.13-14.4,13.9-14.98Z"/>
        <path class="cls-4" d="M126.93,50.68c.28-1.43,.43-2.91,.43-4.43,0-12.71-10.3-23.01-23.01-23.01-2.33,0-4.57,.35-6.69,.99-5.63-12.53-18.21-21.27-32.85-21.27-19.34,0-35.11,15.25-35.96,34.37-15.98,.25-28.86,13.27-28.86,29.31s12.29,28.46,27.75,29.28c.21,.03,.43,.04,.65,.04H125.07s.04,0,.06,0c.04,0,.08,0,.11,0,12.52,0,22.68-10.15,22.68-22.68s-9.25-21.74-20.99-22.61Z"/>
      </g>
      <path class="cls-5" d="M32.46,124.92c0,4.01-3.25,7.27-7.27,7.27s-7.27-3.25-7.27-7.27,7.27-16.48,7.27-16.48c0,0,7.27,12.46,7.27,16.48Z"/>
      <path class="cls-2" d="M98.16,165.83c0,4.01-3.25,7.27-7.27,7.27s-7.27-3.25-7.27-7.27,7.27-16.48,7.27-16.48c0,0,7.27,12.46,7.27,16.48Z"/>
      <path class="cls-1" d="M131.03,122.82c0,2.08-1.68,3.76-3.76,3.76s-3.76-1.68-3.76-3.76,3.76-8.52,3.76-8.52c0,0,3.76,6.45,3.76,8.52Z"/>
      <polygon class="cls-6" points="90.25 78.03 69.62 78.03 49 113.9 60.39 113.9 47.2 156.06 88.46 105.83 74.27 105.83 90.25 78.03"/>
    </g>
  </g>
</svg>