<?xml version="1.0" encoding="UTF-8"?>
<svg id="Capa_1" data-name="Capa 1" xmlns="http://www.w3.org/2000/svg" xmlns:xlink="http://www.w3.org/1999/xlink" viewBox="0 0 71.05 71.04">
  <defs>
    <style>
      .cls-1 {
        fill: #28384a;
      }

      .cls-2 {
        fill: url(#Degradado_sin_nombre_942);
      }

      .cls-3 {
        fill: url(#Degradado_sin_nombre_1021);
      }

      .cls-4 {
        fill: #f9c000;
      }
    </style>
    <linearGradient id="Degradado_sin_nombre_942" data-name="Degradado sin nombre 942" x1="42.03" y1="27.82" x2="59.8" y2="10.05" gradientUnits="userSpaceOnUse">
      <stop offset="0" stop-color="#fff"/>
      <stop offset="1" stop-color="#f9c000"/>
    </linearGradient>
    <linearGradient id="Degradado_sin_nombre_1021" data-name="Degradado sin nombre 1021" x1="17.33" y1="28.63" x2="46.33" y2="-.37" gradientUnits="userSpaceOnUse">
      <stop offset="0" stop-color="#36a9e1"/>
      <stop offset="1" stop-color="#cdebff"/>
    </linearGradient>
  </defs>
  <polygon class="cls-2" points="65.71 23.48 60.89 11.83 60.41 10.66 59.23 10.17 48.36 5.67 47.18 5.18 46.01 5.67 34.38 10.48 27.53 13.31 34.38 16.15 61.69 27.49 68.54 30.33 65.71 23.48"/>
  <path class="cls-3" d="M48.37,5.68L36.73,.85l-1.18-.49-1.18,.49-10.87,4.5-1.17,.49-.49,1.17-4.82,11.62-2.84,6.85,6.86-2.83,27.33-11.3,6.86-2.83-6.85-2.84Zm-28.5,14.13h0s27.33-11.3,27.33-11.3l-27.33,11.3Z"/>
  <path class="cls-1" d="M23.52,5.36l-11.64,4.81-1.18,.49-.49,1.18-4.5,10.87-.49,1.17,.49,1.18,4.81,11.63,2.83,6.86,2.84-6.85L27.54,9.37l2.84-6.85-6.86,2.84Zm-10.16,30.15l-4.81-11.63h0l4.81,11.63L24.7,8.2l-11.34,27.31Z"/>
  <polygon class="cls-1" points="22.7 50.02 11.41 22.7 8.57 15.84 5.73 22.69 .9 34.33 .41 35.51 .9 36.68 5.4 47.55 5.89 48.73 7.06 49.21 18.69 54.04 25.54 56.88 22.7 50.02"/>
  <path class="cls-1" d="M36.73,54.86l-27.31-11.34-6.85-2.84,2.83,6.86,4.81,11.64,.49,1.18,1.18,.49,10.87,4.5,1.17,.49,1.18-.49,11.63-4.81,6.86-2.83-6.85-2.84Zm-23.68,3.14l-4.81-11.64,4.81,11.64,10.87,4.5-10.87-4.5Z"/>
  <polygon class="cls-1" points="50.07 48.36 22.75 59.65 15.89 62.49 22.74 65.33 34.38 70.16 35.55 70.65 36.73 70.16 47.6 65.66 48.77 65.17 49.26 64 54.09 52.38 56.93 45.52 50.07 48.36"/>
  <path class="cls-1" d="M65.39,45.96l-4.81-11.63-2.83-6.86-2.84,6.85-11.34,27.31-2.84,6.85,6.86-2.83,11.64-4.81,1.18-.49,.49-1.18,4.5-10.87,.49-1.17-.49-1.18Zm-7.34,12.04l-11.64,4.81,11.64-4.81,4.5-10.87-4.5,10.87Z"/>
  <path class="cls-1" d="M70.21,34.33l-1.67-4-19.64-8.15,10.8,26.13,2.83,6.86,2.84-6.85,4.83-11.64,.49-1.18-.49-1.18Zm-7.67,12.81l4.83-11.64h0s-4.83,11.64-4.83,11.64Z"/>
  <circle class="cls-4" cx="35.55" cy="35.51" r="8.45"/>
</svg>