<?xml version="1.0" encoding="UTF-8"?>
<svg id="Capa_1" data-name="Capa 1" xmlns="http://www.w3.org/2000/svg" xmlns:xlink="http://www.w3.org/1999/xlink" viewBox="0 0 305.56 71.04">
  <defs>
    <style>
      .cls-1 {
        fill: #36a9e1;
      }

      .cls-2 {
        fill: #28384a;
      }

      .cls-3 {
        fill: url(#Degradado_sin_nombre_942);
      }

      .cls-4 {
        fill: url(#Degradado_sin_nombre_1021);
      }

      .cls-5 {
        fill: #f9c000;
      }
    </style>
    <linearGradient id="Degradado_sin_nombre_942" data-name="Degradado sin nombre 942" x1="42.03" y1="27.82" x2="59.8" y2="10.05" gradientUnits="userSpaceOnUse">
      <stop offset="0" stop-color="#fff"/>
      <stop offset="1" stop-color="#f9c000"/>
    </linearGradient>
    <linearGradient id="Degradado_sin_nombre_1021" data-name="Degradado sin nombre 1021" x1="17.33" y1="28.63" x2="46.33" y2="-.37" gradientUnits="userSpaceOnUse">
      <stop offset="0" stop-color="#36a9e1"/>
      <stop offset="1" stop-color="#cdebff"/>
    </linearGradient>
  </defs>
  <g>
    <polygon class="cls-3" points="65.71 23.48 60.89 11.83 60.41 10.66 59.23 10.17 48.36 5.67 47.18 5.18 46.01 5.67 34.38 10.48 27.53 13.31 34.38 16.15 61.69 27.49 68.54 30.33 65.71 23.48"/>
    <path class="cls-4" d="M48.37,5.68L36.73,.85l-1.18-.49-1.18,.49-10.87,4.5-1.17,.49-.49,1.17-4.82,11.62-2.84,6.85,6.86-2.83,27.33-11.3,6.86-2.83-6.85-2.84Zm-28.5,14.13h0s27.33-11.3,27.33-11.3l-27.33,11.3Z"/>
    <path class="cls-2" d="M23.52,5.36l-11.64,4.81-1.18,.49-.49,1.18-4.5,10.87-.49,1.17,.49,1.18,4.81,11.63,2.83,6.86,2.84-6.85L27.54,9.37l2.84-6.85-6.86,2.84Zm-10.16,30.15l-4.81-11.63h0l4.81,11.63L24.7,8.2l-11.34,27.31Z"/>
    <polygon class="cls-2" points="22.7 50.02 11.41 22.7 8.57 15.84 5.73 22.69 .9 34.33 .41 35.51 .9 36.68 5.4 47.55 5.89 48.73 7.06 49.21 18.69 54.04 25.54 56.88 22.7 50.02"/>
    <path class="cls-2" d="M36.73,54.86l-27.31-11.34-6.85-2.84,2.83,6.86,4.81,11.64,.49,1.18,1.18,.49,10.87,4.5,1.17,.49,1.18-.49,11.63-4.81,6.86-2.83-6.85-2.84Zm-23.68,3.14l-4.81-11.64,4.81,11.64,10.87,4.5-10.87-4.5Z"/>
    <polygon class="cls-2" points="50.07 48.36 22.75 59.65 15.89 62.49 22.74 65.33 34.38 70.16 35.55 70.65 36.73 70.16 47.6 65.66 48.77 65.17 49.26 64 54.09 52.38 56.93 45.52 50.07 48.36"/>
    <path class="cls-2" d="M65.39,45.96l-4.81-11.63-2.83-6.86-2.84,6.85-11.34,27.31-2.84,6.85,6.86-2.83,11.64-4.81,1.18-.49,.49-1.18,4.5-10.87,.49-1.17-.49-1.18Zm-7.34,12.04l-11.64,4.81,11.64-4.81,4.5-10.87-4.5,10.87Z"/>
    <path class="cls-2" d="M70.21,34.33l-1.67-4-19.64-8.15,10.8,26.13,2.83,6.86,2.84-6.85,4.83-11.64,.49-1.18-.49-1.18Zm-7.67,12.81l4.83-11.64h0s-4.83,11.64-4.83,11.64Z"/>
    <circle class="cls-5" cx="35.55" cy="35.51" r="8.45"/>
  </g>
  <g>
    <path class="cls-2" d="M98.45,49.71c-2.32,0-4.46-.57-6.42-1.71-1.96-1.14-3.54-2.65-4.74-4.53-1.2-1.88-1.8-3.9-1.8-6.06v-4.92c0-2.16,.58-4.17,1.74-6.03,1.16-1.86,2.73-3.35,4.71-4.47,1.98-1.12,4.15-1.68,6.51-1.68s4.52,.55,6.48,1.65c1.96,1.1,3.54,2.57,4.74,4.41,1.2,1.84,1.8,3.88,1.8,6.12v4.92c0,2.12-.6,4.12-1.8,6-1.2,1.88-2.79,3.4-4.77,4.56-1.98,1.16-4.13,1.74-6.45,1.74Zm0-6.78c.96,0,1.84-.26,2.64-.78,.8-.52,1.44-1.21,1.92-2.07,.48-.86,.72-1.75,.72-2.67v-4.92c0-.92-.24-1.78-.72-2.58-.48-.8-1.11-1.47-1.89-2.01s-1.67-.81-2.67-.81-1.84,.26-2.64,.78c-.8,.52-1.43,1.19-1.89,2.01-.46,.82-.69,1.69-.69,2.61v4.92c0,.92,.23,1.81,.69,2.67,.46,.86,1.09,1.55,1.89,2.07,.8,.52,1.68,.78,2.64,.78Z"/>
    <path class="cls-2" d="M120.23,62.43c-1.08,0-1.98-.26-2.7-.78-.72-.52-1.08-1.08-1.08-1.68V23.07c0-.72,.36-1.3,1.08-1.74,.72-.44,1.6-.66,2.64-.66s1.89,.22,2.55,.66c.66,.44,.99,1.02,.99,1.74v1.8c.68-1.16,1.72-2.21,3.12-3.15,1.4-.94,3.06-1.41,4.98-1.41,2.04,0,3.87,.55,5.49,1.65,1.62,1.1,2.9,2.57,3.84,4.41,.94,1.84,1.41,3.88,1.41,6.12v4.92c0,2.12-.48,4.12-1.44,6-.96,1.88-2.23,3.4-3.81,4.56-1.58,1.16-3.33,1.74-5.25,1.74-1.76,0-3.36-.48-4.8-1.44-1.44-.96-2.46-2.06-3.06-3.3v15c0,.6-.38,1.16-1.14,1.68-.76,.52-1.7,.78-2.82,.78Zm9.3-19.5c.96,0,1.83-.27,2.61-.81s1.42-1.23,1.92-2.07c.5-.84,.75-1.72,.75-2.64v-4.92c0-.92-.24-1.78-.72-2.58-.48-.8-1.13-1.47-1.95-2.01-.82-.54-1.73-.81-2.73-.81-.88,0-1.71,.22-2.49,.66-.78,.44-1.43,1.06-1.95,1.86-.52,.8-.78,1.76-.78,2.88v6c0,.4,.23,.95,.69,1.65,.46,.7,1.09,1.34,1.89,1.92,.8,.58,1.72,.87,2.76,.87Z"/>
    <path class="cls-2" d="M160.97,49.71c-2.84,0-5.35-.51-7.53-1.53-2.18-1.02-3.89-2.46-5.13-4.32-1.24-1.86-1.86-4.01-1.86-6.45v-5.1c0-2.16,.59-4.15,1.77-5.97,1.18-1.82,2.76-3.28,4.74-4.38,1.98-1.1,4.19-1.65,6.63-1.65,2.24,0,4.29,.48,6.15,1.44s3.37,2.28,4.53,3.96c1.16,1.68,1.74,3.64,1.74,5.88,0,1.72-.28,2.95-.84,3.69-.56,.74-1.27,1.2-2.13,1.38-.86,.18-1.75,.27-2.67,.27h-12.18v.9c0,1.72,.65,3.11,1.95,4.17,1.3,1.06,2.99,1.59,5.07,1.59,1.32,0,2.42-.2,3.3-.6,.88-.4,1.64-.78,2.28-1.14,.64-.36,1.24-.54,1.8-.54,.6,0,1.12,.2,1.56,.6,.44,.4,.78,.87,1.02,1.41,.24,.54,.36,1.01,.36,1.41,0,.68-.43,1.41-1.29,2.19-.86,.78-2.08,1.44-3.66,1.98s-3.45,.81-5.61,.81Zm-6.78-17.34h8.76c.68,0,1.15-.11,1.41-.33,.26-.22,.39-.65,.39-1.29,0-.92-.25-1.74-.75-2.46-.5-.72-1.14-1.28-1.92-1.68-.78-.4-1.65-.6-2.61-.6s-1.78,.19-2.58,.57c-.8,.38-1.45,.92-1.95,1.62-.5,.7-.75,1.53-.75,2.49v1.68Z"/>
    <path class="cls-2" d="M180.46,49.17c-1.12,0-2.04-.26-2.76-.78-.72-.52-1.08-1.1-1.08-1.74V23.07c0-.72,.36-1.3,1.08-1.74,.72-.44,1.64-.66,2.76-.66,.96,0,1.77,.22,2.43,.66,.66,.44,.99,1.02,.99,1.74v1.8c.6-1.16,1.59-2.21,2.97-3.15,1.38-.94,3.07-1.41,5.07-1.41,1.88,0,3.6,.55,5.16,1.65,1.56,1.1,2.81,2.57,3.75,4.41,.94,1.84,1.41,3.88,1.41,6.12v14.16c0,.84-.4,1.47-1.2,1.89-.8,.42-1.7,.63-2.7,.63-.88,0-1.74-.21-2.58-.63-.84-.42-1.26-1.05-1.26-1.89v-14.16c0-.92-.23-1.78-.69-2.58-.46-.8-1.09-1.47-1.89-2.01-.8-.54-1.68-.81-2.64-.81-.8,0-1.58,.22-2.34,.66-.76,.44-1.38,1.06-1.86,1.86-.48,.8-.72,1.76-.72,2.88v14.16c0,.64-.38,1.22-1.14,1.74-.76,.52-1.68,.78-2.76,.78Z"/>
    <path class="cls-1" d="M220.06,49.71c-3.04,0-5.52-.54-7.44-1.62s-3.34-2.55-4.26-4.41c-.92-1.86-1.38-3.95-1.38-6.27v-4.8c0-2.32,.45-4.41,1.35-6.27s2.32-3.33,4.26-4.41c1.94-1.08,4.39-1.62,7.35-1.62,1.88,0,3.54,.22,4.98,.66,1.44,.44,2.58,1.02,3.42,1.74,.84,.72,1.26,1.48,1.26,2.28,0,.48-.13,1.01-.39,1.59-.26,.58-.62,1.09-1.08,1.53-.46,.44-.99,.66-1.59,.66-.44,0-.89-.14-1.35-.42-.46-.28-1.05-.56-1.77-.84-.72-.28-1.68-.42-2.88-.42-2.04,0-3.52,.49-4.44,1.47-.92,.98-1.38,2.33-1.38,4.05v4.8c0,1.72,.46,3.07,1.38,4.05,.92,.98,2.42,1.47,4.5,1.47,1.24,0,2.2-.16,2.88-.48,.68-.32,1.25-.62,1.71-.9,.46-.28,.93-.42,1.41-.42,.72,0,1.33,.2,1.83,.6,.5,.4,.88,.89,1.14,1.47,.26,.58,.39,1.11,.39,1.59,0,.8-.43,1.58-1.29,2.34-.86,.76-2.04,1.38-3.54,1.86s-3.19,.72-5.07,.72Z"/>
    <path class="cls-1" d="M240.1,49.71c-2.12,0-3.95-.65-5.49-1.95-1.54-1.3-2.31-3.31-2.31-6.03,0-2.28,.59-4.06,1.77-5.34,1.18-1.28,2.82-2.18,4.92-2.7,2.1-.52,4.53-.78,7.29-.78h2.46v-.78c0-.88-.17-1.74-.51-2.58-.34-.84-.88-1.54-1.62-2.1-.74-.56-1.79-.84-3.15-.84-1.52,0-2.69,.15-3.51,.45-.82,.3-1.45,.61-1.89,.93-.44,.32-.92,.48-1.44,.48-.84,0-1.49-.42-1.95-1.26-.46-.84-.69-1.7-.69-2.58s.51-1.59,1.53-2.25c1.02-.66,2.27-1.17,3.75-1.53,1.48-.36,2.92-.54,4.32-.54,3.12,0,5.62,.56,7.5,1.68,1.88,1.12,3.25,2.56,4.11,4.32,.86,1.76,1.29,3.66,1.29,5.7v14.64c0,.72-.36,1.32-1.08,1.8s-1.62,.72-2.7,.72c-1,0-1.83-.24-2.49-.72-.66-.48-.99-1.08-.99-1.8v-1.68c-1.08,1.24-2.35,2.34-3.81,3.3s-3.23,1.44-5.31,1.44Zm3.12-5.76c.84,0,1.68-.28,2.52-.84,.84-.56,1.55-1.28,2.13-2.16,.58-.88,.87-1.8,.87-2.76v-1.26h-.9c-1.32,0-2.58,.08-3.78,.24-1.2,.16-2.17,.51-2.91,1.05s-1.11,1.37-1.11,2.49,.31,1.94,.93,2.46c.62,.52,1.37,.78,2.25,.78Z"/>
    <path class="cls-1" d="M271.54,49.71c-2,0-3.83-.25-5.49-.75s-2.96-1.15-3.9-1.95c-.94-.8-1.41-1.62-1.41-2.46,0-.44,.11-.92,.33-1.44,.22-.52,.52-.98,.9-1.38,.38-.4,.83-.6,1.35-.6,.56,0,1.15,.23,1.77,.69,.62,.46,1.4,.91,2.34,1.35,.94,.44,2.25,.66,3.93,.66,1.8,0,2.99-.28,3.57-.84,.58-.56,.87-1.14,.87-1.74,0-.88-.35-1.56-1.05-2.04-.7-.48-1.59-.87-2.67-1.17-1.08-.3-2.23-.63-3.45-.99-1.22-.36-2.37-.83-3.45-1.41-1.08-.58-1.96-1.38-2.64-2.4-.68-1.02-1.02-2.35-1.02-3.99,0-1.44,.34-2.84,1.02-4.2,.68-1.36,1.8-2.49,3.36-3.39,1.56-.9,3.68-1.35,6.36-1.35,1.64,0,3.19,.17,4.65,.51,1.46,.34,2.65,.81,3.57,1.41,.92,.6,1.38,1.26,1.38,1.98,0,.36-.12,.83-.36,1.41-.24,.58-.57,1.11-.99,1.59-.42,.48-.93,.72-1.53,.72-.44,0-.97-.15-1.59-.45-.62-.3-1.33-.59-2.13-.87-.8-.28-1.76-.42-2.88-.42-1,0-1.8,.14-2.4,.42-.6,.28-1.04,.62-1.32,1.02-.28,.4-.42,.82-.42,1.26,0,.72,.34,1.28,1.02,1.68,.68,.4,1.57,.74,2.67,1.02,1.1,.28,2.26,.59,3.48,.93,1.22,.34,2.38,.83,3.48,1.47,1.1,.64,1.99,1.51,2.67,2.61,.68,1.1,1.02,2.53,1.02,4.29,0,2.68-.95,4.82-2.85,6.42-1.9,1.6-4.63,2.4-8.19,2.4Z"/>
    <path class="cls-1" d="M298.24,49.17c-3.6,0-6.35-.78-8.25-2.34-1.9-1.56-2.85-4.04-2.85-7.44V10.35c0-.72,.42-1.3,1.26-1.74,.84-.44,1.7-.66,2.58-.66,.96,0,1.85,.22,2.67,.66,.82,.44,1.23,1.02,1.23,1.74v10.32h7.08c.64,0,1.13,.29,1.47,.87,.34,.58,.51,1.23,.51,1.95s-.17,1.37-.51,1.95c-.34,.58-.83,.87-1.47,.87h-7.08v13.08c0,1.2,.25,2.04,.75,2.52,.5,.48,1.37,.72,2.61,.72h2.34c1.12,0,1.95,.34,2.49,1.02,.54,.68,.81,1.42,.81,2.22,0,.84-.27,1.6-.81,2.28-.54,.68-1.37,1.02-2.49,1.02h-2.34Z"/>
  </g>
</svg>